<?xml version="1.0" standalone="no"?>
<!DOCTYPE svg PUBLIC "-//W3C//DTD SVG 20010904//EN"
 "http://www.w3.org/TR/2001/REC-SVG-20010904/DTD/svg10.dtd">
<svg version="1.0" xmlns="http://www.w3.org/2000/svg"
 width="919.000000pt" height="919.000000pt" viewBox="0 0 919.000000 919.000000"
 preserveAspectRatio="xMidYMid meet">
<metadata>
Created by potrace 1.14, written by Peter Selinger 2001-2017
</metadata>
<g transform="translate(0.000000,919.000000) scale(0.100000,-0.100000)"
fill="#000000" stroke="none">
<path d="M910 7225 l0 -1165 230 0 230 0 0 -465 0 -465 235 0 235 0 0 -465 0
-465 -235 0 -235 0 0 -1165 0 -1165 235 0 235 0 0 -230 0 -230 235 0 235 0 0
-235 0 -235 2325 0 2325 0 0 235 0 235 235 0 235 0 0 230 0 230 230 0 230 0 0
1165 0 1165 -230 0 -230 0 0 465 0 465 230 0 230 0 0 465 0 465 235 0 235 0 0
1165 0 1165 -700 0 -700 0 0 -230 0 -230 -230 0 -230 0 0 -235 0 -235 -235 0
-235 0 0 -235 0 -235 -230 0 -230 0 0 -230 0 -230 -935 0 -935 0 0 230 0 230
-230 0 -230 0 0 235 0 235 -235 0 -235 0 0 235 0 235 -230 0 -230 0 0 230 0
230 -700 0 -700 0 0 -1165z m1400 470 l0 -235 230 0 230 0 0 -235 0 -235 235
0 235 0 0 -465 0 -465 1395 0 1395 0 0 465 0 465 235 0 235 0 0 235 0 235 230
0 230 0 0 235 0 235 465 0 465 0 0 -935 0 -935 -230 0 -230 0 0 -230 0 -230
-235 0 -235 0 0 -700 0 -700 235 0 235 0 0 -1165 0 -1165 -235 0 -235 0 0
-230 0 -230 -2325 0 -2325 0 0 230 0 230 -235 0 -235 0 0 1165 0 1165 235 0
235 0 0 700 0 700 -235 0 -235 0 0 230 0 230 -235 0 -235 0 0 935 0 935 470 0
470 0 0 -235z"/>
<path d="M3240 4200 l0 -470 230 0 230 0 0 470 0 470 -230 0 -230 0 0 -470z"/>
<path d="M5570 4200 l0 -470 230 0 230 0 0 470 0 470 -230 0 -230 0 0 -470z"/>
<path d="M4170 3265 l0 -465 -235 0 -235 0 0 -230 0 -230 -465 0 -465 0 0 230
0 230 -230 0 -230 0 0 -230 0 -230 230 0 230 0 0 -235 0 -235 465 0 465 0 0
235 0 235 235 0 235 0 0 230 0 230 465 0 465 0 0 -230 0 -230 235 0 235 0 0
-235 0 -235 465 0 465 0 0 235 0 235 230 0 230 0 0 230 0 230 -230 0 -230 0 0
-230 0 -230 -465 0 -465 0 0 230 0 230 -235 0 -235 0 0 465 0 465 -465 0 -465
0 0 -465z"/>
</g>
</svg>
