<?xml version="1.0" standalone="no"?>
<!DOCTYPE svg PUBLIC "-//W3C//DTD SVG 20010904//EN"
 "http://www.w3.org/TR/2001/REC-SVG-20010904/DTD/svg10.dtd">
<svg version="1.0" xmlns="http://www.w3.org/2000/svg"
 width="180.000000pt" height="180.000000pt" viewBox="0 0 180.000000 180.000000"
 preserveAspectRatio="xMidYMid meet">
<metadata>
Created by potrace 1.14, written by Peter Selinger 2001-2017
</metadata>
<g transform="translate(0.000000,180.000000) scale(0.100000,-0.100000)"
fill="#e5d8cb" stroke="none">
<path d="M180 1690 c-1 -5 -1 -111 -1 -235 0 -124 0 -229 1 -235 0 -5 20 -10
45 -10 l45 0 0 -100 0 -100 45 0 c29 0 45 -4 46 -12 3 -43 -2 -171 -6 -178 -3
-5 -23 -7 -45 -5 l-40 3 0 -249 0 -249 45 3 45 3 0 -47 c0 -51 6 -56 58 -54
34 2 35 -1 34 -67 l-1 -28 77 0 c42 -1 247 -2 455 -3 245 -1 377 1 378 8 1 6
2 28 3 50 1 38 3 40 34 41 61 3 60 1 57 49 -2 44 -1 45 29 46 17 1 38 2 46 3
13 1 15 36 15 247 l1 246 -36 -2 c-19 -1 -40 0 -45 2 -6 2 -10 42 -10 96 l0
92 45 5 45 5 1 85 c1 47 2 91 3 98 1 7 17 12 46 12 l45 0 0 245 0 245 -139 0
-140 0 1 -27 c1 -67 0 -70 -34 -68 -52 3 -58 -3 -58 -55 l0 -47 -45 2 -45 3 0
-49 c0 -32 -4 -49 -12 -50 -7 -1 -28 -1 -45 -1 -33 -1 -33 -1 -33 -49 l0 -49
-184 0 -183 0 1 48 1 47 -35 1 c-19 1 -40 2 -46 3 -6 0 -11 16 -11 34 -1 66 0
65 -48 62 l-45 -2 0 52 0 51 -42 0 -43 -1 0 45 0 45 -138 3 c-89 2 -137 -1
-137 -8z"/>
</g>
</svg>
