<svg xmlns="http://www.w3.org/2000/svg" xmlns:xlink="http://www.w3.org/1999/xlink" id="body_1" width="24" height="24">

<g transform="matrix(0.20512822 0 0 0.20512822 0 0)" fill="currentColor">
	<g transform="matrix(0.13295454 0 -0 -0.13295455 0 117)">
	</g>
    <path transform="matrix(0.13295454 0 -0 -0.13295455 0 117)"  d="M135 807C 81 789 60 762 60 708C 60 682 66 651 72 640C 82 624 82 616 72 600C 55 573 57 494 75 466C 89 445 89 442 75 430C 57 415 55 329 72 300C 81 286 81 275 73 258C 44 199 49 151 90 110C 115 85 177 83 218 107C 246 123 249 123 264 107C 290 82 363 81 391 106C 411 124 424 124 441 104C 458 83 567 89 581 111C 586 119 590 120 590 113C 590 100 640 87 682 88C 760 90 806 186 759 251L759 251L739 280L759 306C 786 340 786 390 759 424L759 424L738 451L759 474C 786 503 786 553 759 592C 746 610 741 625 747 629C 763 639 780 677 780 704C 780 747 759 778 717 798C 678 816 675 816 628 799C 585 784 576 783 552 796C 518 814 482 814 447 795C 423 783 415 783 385 796C 341 814 312 814 276 795C 249 781 243 781 211 796C 191 805 173 814 170 815C 167 816 152 813 135 807zM197 745C 209 737 220 720 222 707C 226 678 263 677 268 705C 274 737 301 760 332 760C 367 760 387 743 392 709C 397 671 423 675 445 717C 462 750 470 755 500 755C 530 755 538 750 555 717C 577 675 603 672 608 710C 618 778 730 773 730 705C 730 682 698 648 667 637C 643 628 649 596 675 592C 704 586 730 560 730 536C 729 509 707 480 688 480C 679 480 666 473 659 464C 647 449 648 446 664 436C 742 389 750 352 690 312C 650 285 646 270 676 255C 736 225 746 189 706 151C 674 121 647 130 614 181C 601 202 586 220 581 220C 575 220 566 205 559 186C 533 115 466 116 441 186C 426 227 411 226 390 183C 371 143 335 122 312 136C 303 142 287 162 278 181C 255 225 229 225 218 183C 206 138 179 125 140 145C 123 154 106 168 103 176C 94 201 118 240 150 252C 190 265 188 283 145 309C 125 320 107 337 103 345C 94 371 118 411 151 423C 187 437 185 458 145 480C 104 503 90 543 114 569C 124 580 142 590 154 592C 181 596 190 640 163 640C 117 641 89 696 114 735C 133 763 165 767 197 745z" stroke="none" />
	<g transform="matrix(0.13295454 0 -0 -0.13295455 0 117)">
	</g>
    <path transform="matrix(0.13295454 0 -0 -0.13295455 0 117)"  d="M493 582C 482 575 477 551 479 517C 480 503 487 499 508 502C 530 504 536 510 538 537C 541 570 516 596 493 582z" stroke="none" />
	<g transform="matrix(0.13295454 0 -0 -0.13295455 0 117)">
	</g>
    <path transform="matrix(0.13295454 0 -0 -0.13295455 0 117)"  d="M297 548C 291 507 301 496 334 504C 377 515 364 580 319 580C 308 580 301 569 297 548z" stroke="none" />
	<g transform="matrix(0.13295454 0 -0 -0.13295455 0 117)">
	</g>
    <path transform="matrix(0.13295454 0 -0 -0.13295455 0 117)"  d="M298 378C 291 339 300 320 325 320C 351 320 365 348 355 380C 346 409 304 407 298 378z" stroke="none" />
	<g transform="matrix(0.13295454 0 -0 -0.13295455 0 117)">
	</g>
    <path transform="matrix(0.13295454 0 -0 -0.13295455 0 117)"  d="M487 394C 483 390 480 372 480 354C 480 318 499 305 525 324C 549 341 542 394 515 398C 503 400 491 398 487 394z" stroke="none" />
</g>
</svg>