<?xml version="1.0" standalone="no"?>
<!DOCTYPE svg PUBLIC "-//W3C//DTD SVG 20010904//EN"
 "http://www.w3.org/TR/2001/REC-SVG-20010904/DTD/svg10.dtd">
<svg version="1.0" xmlns="http://www.w3.org/2000/svg"
 width="88.000000pt" height="88.000000pt" viewBox="0 0 88.000000 88.000000"
 preserveAspectRatio="xMidYMid meet">
<g transform="translate(0.000000,88.000000) scale(0.100000,-0.100000)"
fill="#555" stroke="none">
<path d="M135 807 c-54 -18 -75 -45 -75 -99 0 -26 6 -57 12 -68 10 -16 10 -24
0 -40 -17 -27 -15 -106 3 -134 14 -21 14 -24 0 -36 -18 -15 -20 -101 -3 -130
9 -14 9 -25 1 -42 -29 -59 -24 -107 17 -148 25 -25 87 -27 128 -3 28 16 31 16
46 0 26 -25 99 -26 127 -1 20 18 33 18 50 -2 17 -21 126 -15 140 7 5 8 9 9 9
2 0 -13 50 -26 92 -25 78 2 124 98 77 163 l-20 29 20 26 c27 34 27 84 0 118
l-21 27 21 23 c27 29 27 79 0 118 -13 18 -18 33 -12 37 16 10 33 48 33 75 0
43 -21 74 -63 94 -39 18 -42 18 -89 1 -43 -15 -52 -16 -76 -3 -34 18 -70 18
-105 -1 -24 -12 -32 -12 -62 1 -44 18 -73 18 -109 -1 -27 -14 -33 -14 -65 1
-20 9 -38 18 -41 19 -3 1 -18 -2 -35 -8z m62 -62 c12 -8 23 -25 25 -38 4 -29
41 -30 46 -2 6 32 33 55 64 55 35 0 55 -17 60 -51 5 -38 31 -34 53 8 17 33 25
38 55 38 30 0 38 -5 55 -38 22 -42 48 -45 53 -7 10 68 122 63 122 -5 0 -23
-32 -57 -63 -68 -24 -9 -18 -41 8 -45 29 -6 55 -32 55 -56 -1 -27 -23 -56 -42
-56 -9 0 -22 -7 -29 -16 -12 -15 -11 -18 5 -28 78 -47 86 -84 26 -124 -40 -27
-44 -42 -14 -57 60 -30 70 -66 30 -104 -32 -30 -59 -21 -92 30 -13 21 -28 39
-33 39 -6 0 -15 -15 -22 -34 -26 -71 -93 -70 -118 0 -15 41 -30 40 -51 -3 -19
-40 -55 -61 -78 -47 -9 6 -25 26 -34 45 -23 44 -49 44 -60 2 -12 -45 -39 -58
-78 -38 -17 9 -34 23 -37 31 -9 25 15 64 47 76 40 13 38 31 -5 57 -20 11 -38
28 -42 36 -9 26 15 66 48 78 36 14 34 35 -6 57 -41 23 -55 63 -31 89 10 11 28
21 40 23 27 4 36 48 9 48 -46 1 -74 56 -49 95 19 28 51 32 83 10z"/>
<path d="M493 582 c-11 -7 -16 -31 -14 -65 1 -14 8 -18 29 -15 22 2 28 8 30
35 3 33 -22 59 -45 45z"/>
<path d="M297 548 c-6 -41 4 -52 37 -44 43 11 30 76 -15 76 -11 0 -18 -11 -22
-32z"/>
<path d="M298 378 c-7 -39 2 -58 27 -58 26 0 40 28 30 60 -9 29 -51 27 -57 -2z"/>
<path d="M487 394 c-4 -4 -7 -22 -7 -40 0 -36 19 -49 45 -30 24 17 17 70 -10
74 -12 2 -24 0 -28 -4z"/>
</g>
</svg>
