<?xml version="1.0" standalone="no"?>
<!DOCTYPE svg PUBLIC "-//W3C//DTD SVG 1.0//EN" "http://www.w3.org/TR/2001/REC-SVG-20010904/DTD/svg10.dtd">
<svg xmlns="http://www.w3.org/2000/svg" xmlns:xlink="http://www.w3.org/1999/xlink" id="body_1" width="32" height="24">

<g transform="matrix(0.033203125 0 0 0.033854168 0 0)" fill="currentColor">
	<g transform="matrix(24 0 0 24 128.00003 -0)">
	</g>
    <path transform="matrix(24 0 0 24 128.00003 -0)"  d="M3 11L29 11" stroke="currentColor" stroke-width="1.5" stroke-linecap="round" fill="none" />
	<g transform="matrix(24 0 0 24 128.00003 -0)">
	</g>
    <path transform="matrix(24 0 0 24 128.00003 -0)"  d="M7 9C 6.7 9 6.5 8.9 6.3 8.7C 6.1 8.5 6 8.3 6 8C 6 7.7 6.1 7.5 6.3 7.3C 6.3 7.3 6.4 7.2000003 6.4 7.2000003C 6.5 7.2000003 6.5 7.1000004 6.6 7.1000004C 6.7 7 6.7 7 6.8 7C 6.9 7 7.1000004 7 7.2000003 7C 7.3 7 7.3 7 7.4 7.1C 7.5 7.1 7.5 7.2 7.6 7.2C 7.6 7.2 7.7 7.2999997 7.7 7.2999997C 7.7999997 7.3999996 7.8999996 7.4999995 7.8999996 7.6C 8 7.7 8 7.9 8 8C 8 8.1 8 8.3 7.9 8.4C 7.9 8.5 7.8 8.6 7.7 8.7C 7.5 8.9 7.3 9 7 9z" stroke="none" />
	<g transform="matrix(24 0 0 24 128.00003 -0)">
	</g>
    <path transform="matrix(24 0 0 24 128.00003 -0)"  d="M10 9C 9.7 9 9.5 8.9 9.3 8.7C 9.1 8.5 9 8.3 9 8C 9 7.9 9 7.7 9.1 7.6C 9.200001 7.5 9.200001 7.4 9.3 7.2999997C 9.400001 7.2 9.5 7.1 9.6 7.1C 10 6.9 10.4 7 10.7 7.3C 10.8 7.4 10.9 7.5 10.9 7.6000004C 11 7.7 11 7.9 11 8C 11 8.3 10.9 8.5 10.7 8.7C 10.5 8.9 10.3 9 10 9z" stroke="none" />
	<g transform="matrix(24 0 0 24 128.00003 -0)">
	</g>
    <path transform="matrix(24 0 0 24 128.00003 -0)"  d="M13 9C 12.9 9 12.7 9 12.6 8.9C 12.5 8.799999 12.400001 8.799999 12.3 8.7C 12.2 8.599999 12.1 8.5 12.1 8.4C 12 8.3 12 8.1 12 8C 12 7.9 12 7.7 12.1 7.6C 12.200001 7.5 12.200001 7.4 12.3 7.2999997C 12.7 6.8999996 13.3 6.8999996 13.7 7.2999997C 13.8 7.3999996 13.9 7.4999995 13.9 7.6C 14 7.7 14 7.9 14 8C 14 8.1 14 8.3 13.9 8.4C 13.799999 8.5 13.799999 8.599999 13.7 8.7C 13.5 8.9 13.3 9 13 9z" stroke="none" />
	<g transform="matrix(24 0 0 24 128.00003 -0)">
	</g>
    <path transform="matrix(24 0 0 24 128.00003 -0)"  d="M27 5L5 5C 3.9 5 3 5.9 3 7L3 7L3 25C 3 26.1 3.9 27 5 27L5 27L27 27C 28.1 27 29 26.1 29 25L29 25L29 7C 29 5.9 28.1 5 27 5z" stroke="currentColor" stroke-width="1.5" stroke-linecap="round" fill="none" />
	<g transform="matrix(24 0 0 24 128.00003 -0)">
	</g>
    <path transform="matrix(24 0 0 24 128.00003 -0)"  d="M11 16L8 19L11 22" stroke="currentColor" stroke-width="1.5" stroke-linecap="round" fill="none" />
	<g transform="matrix(24 0 0 24 128.00003 -0)">
	</g>
    <path transform="matrix(24 0 0 24 128.00003 -0)"  d="M21 16L24 19L21 22" stroke="currentColor" stroke-width="1.5" stroke-linecap="round" fill="none" />
	<g transform="matrix(24 0 0 24 128.00003 -0)">
	</g>
    <path transform="matrix(24 0 0 24 128.00003 -0)"  d="M18 15L14 23" stroke="currentColor" stroke-width="1.5" stroke-linecap="round" fill="none" />
</g>
</svg>