<?xml version="1.0" standalone="no"?>
<!DOCTYPE svg PUBLIC "-//W3C//DTD SVG 20010904//EN"
 "http://www.w3.org/TR/2001/REC-SVG-20010904/DTD/svg10.dtd">
<svg version="1.0" xmlns="http://www.w3.org/2000/svg"
 width="114.000000pt" height="114.000000pt" viewBox="0 0 114.000000 114.000000"
 preserveAspectRatio="xMidYMid meet">
<metadata>
Created by potrace 1.14, written by Peter Selinger 2001-2017
</metadata>
<g transform="translate(0.000000,114.000000) scale(0.100000,-0.100000)"
fill="##555" stroke="none">
<path d="M195 886 c-52 -22 -55 -42 -55 -330 l0 -263 24 -26 c13 -14 39 -28
57 -32 19 -3 195 -5 392 -3 l359 3 24 30 c24 30 24 30 24 293 0 291 -4 311
-60 330 -48 17 -727 15 -765 -2z m763 -48 c37 -37 23 -38 -352 -38 -359 0
-364 0 -359 20 4 15 0 20 -16 20 -23 0 -29 -25 -8 -33 6 -3 2 -6 -10 -6 -25
-1 -30 18 -11 37 17 17 739 17 756 0z m12 -302 c0 -123 -3 -231 -6 -240 -5
-14 -48 -16 -378 -16 -276 0 -375 3 -384 12 -9 9 -12 76 -12 240 l0 228 390 0
390 0 0 -224z"/>
<path d="M270 824 c0 -9 7 -14 17 -12 25 5 28 28 4 28 -12 0 -21 -6 -21 -16z"/>
<path d="M330 825 c0 -8 9 -15 20 -15 11 0 20 7 20 15 0 8 -9 15 -20 15 -11 0
-20 -7 -20 -15z"/>
<path d="M630 684 c-6 -14 -22 -51 -36 -82 -15 -31 -34 -75 -44 -97 -10 -22
-30 -66 -44 -98 -15 -32 -24 -62 -21 -67 13 -22 37 -8 54 33 10 23 34 76 53
117 89 192 92 201 77 211 -22 14 -29 11 -39 -17z"/>
<path d="M415 642 c-33 -23 -106 -123 -99 -134 18 -31 100 -118 110 -118 29 0
22 33 -16 74 -22 24 -40 47 -40 51 0 4 16 27 35 51 42 51 49 104 10 76z"/>
<path d="M726 643 c-13 -13 -5 -36 29 -77 19 -24 35 -47 35 -53 0 -5 -16 -24
-35 -43 -35 -34 -48 -80 -22 -80 12 0 91 84 111 118 5 8 -9 33 -39 70 -50 60
-68 76 -79 65z"/>
</g>
</svg>
