<?xml version="1.0" standalone="no"?>
<!DOCTYPE svg PUBLIC "-//W3C//DTD SVG 1.0//EN" "http://www.w3.org/TR/2001/REC-SVG-20010904/DTD/svg10.dtd">
<svg xmlns="http://www.w3.org/2000/svg" xmlns:xlink="http://www.w3.org/1999/xlink" id="body_1" width="24" height="24">

<g transform="matrix(0.13043478 0 0 0.13043478 0 0)" fill="currentColor">
	<g transform="matrix(0.13333333 0 -0 -0.13333334 0 184)">
	</g>
    <path transform="matrix(0.13333333 0 -0 -0.13333334 0 184)"  d="M627 1245C 569 1229 569 1230 561 1188C 553 1151 554 1151 375 1105C 258 1074 232 1060 228 1023C 225 997 221 995 175 992C 148 990 120 984 113 978C 105 972 100 945 100 915C 100 874 105 858 125 836C 138 822 159 809 172 809C 185 808 206 807 220 806L220 806L245 805L250 645C 255 480 260 461 302 425C 354 380 356 380 685 380C 1029 380 1036 381 1080 437C 1123 491 1131 528 1130 655C 1129 721 1129 783 1129 793C 1130 807 1139 810 1175 810C 1243 810 1270 840 1270 918C 1270 985 1265 990 1195 990C 1156 990 1152 992 1146 1020C 1139 1059 1091 1082 936 1121C 877 1137 826 1151 824 1152C 822 1154 815 1173 808 1195C 799 1222 788 1236 770 1240C 710 1256 672 1257 627 1245zM748 1175C 759 1164 740 1158 681 1153C 630 1148 620 1150 620 1163C 620 1171 626 1181 633 1184C 647 1190 740 1183 748 1175zM875 1072C 958 1054 1073 1015 1078 1002C 1081 993 987 990 685 990C 401 990 289 993 292 1001C 297 1015 375 1041 525 1078C 574 1090 807 1086 875 1072zM240 915C 259 892 244 870 210 870C 178 870 163 888 174 915C 181 934 224 934 240 915zM1055 711L1055 498L1020 469L986 440L688 440C 288 440 310 423 310 723C 310 829 313 920 316 923C 320 927 488 928 689 927L689 927L1055 925L1055 711zM1210 913C 1222 902 1190 875 1161 872C 1134 869 1130 872 1130 894C 1130 909 1137 920 1148 923C 1165 927 1200 922 1210 913z" stroke="none" />
	<g transform="matrix(0.13333333 0 -0 -0.13333334 0 184)">
	</g>
    <path transform="matrix(0.13333333 0 -0 -0.13333334 0 184)"  d="M363 794C 328 773 320 762 320 739C 320 703 332 703 392 735C 449 765 454 766 491 739C 539 705 581 704 637 734L637 734L687 761L736 735C 792 705 832 706 879 739C 916 766 924 765 977 734C 1027 705 1050 708 1050 744C 1050 774 997 810 940 817C 910 821 889 816 851 796L851 796L801 770L758 795C 704 826 672 826 611 796L611 796L563 771L524 795C 472 827 417 827 363 794z" stroke="none" />
	<g transform="matrix(0.13333333 0 -0 -0.13333334 0 184)">
	</g>
    <path transform="matrix(0.13333333 0 -0 -0.13333334 0 184)"  d="M519 328C 452 236 447 198 494 143C 515 119 525 115 564 118C 639 122 663 121 701 115C 726 110 745 113 761 123C 782 137 787 137 804 124C 831 104 869 106 908 130C 946 154 963 192 954 234C 944 282 878 370 853 370C 837 370 810 346 810 332C 810 327 804 317 797 311C 786 303 777 308 754 335C 719 378 706 379 673 340C 660 324 644 310 638 310C 633 310 617 324 603 340C 590 357 572 370 564 370C 556 370 536 351 519 328zM610 218C 610 184 607 180 586 180C 530 180 515 207 545 254C 559 275 564 276 585 266C 605 257 610 248 610 218zM743 201C 730 180 703 175 685 190C 664 207 666 232 691 259L691 259L713 282L733 250C 748 226 751 214 743 201zM885 233C 893 199 871 175 838 183C 825 187 814 197 813 207C 812 217 809 236 804 249C 799 266 800 271 808 266C 815 262 828 263 837 269C 859 281 876 268 885 233z" stroke="none" />
</g>
</svg>