<?xml version="1.0" standalone="no"?>
<!DOCTYPE svg PUBLIC "-//W3C//DTD SVG 20010904//EN"
 "http://www.w3.org/TR/2001/REC-SVG-20010904/DTD/svg10.dtd">
<svg version="1.0" xmlns="http://www.w3.org/2000/svg"
 width="138.000000pt" height="138.000000pt" viewBox="0 0 138.000000 138.000000"
 preserveAspectRatio="xMidYMid meet">
<g transform="translate(0.000000,138.000000) scale(0.100000,-0.100000)"
fill="#555" stroke="none">
<path d="M627 1245 c-58 -16 -58 -15 -66 -57 -8 -37 -7 -37 -186 -83 -117 -31
-143 -45 -147 -82 -3 -26 -7 -28 -53 -31 -27 -2 -55 -8 -62 -14 -8 -6 -13 -33
-13 -63 0 -41 5 -57 25 -79 13 -14 34 -27 47 -27 13 -1 34 -2 48 -3 l25 -1 5
-160 c5 -165 10 -184 52 -220 52 -45 54 -45 383 -45 344 0 351 1 395 57 43 54
51 91 50 218 -1 66 -1 128 -1 138 1 14 10 17 46 17 68 0 95 30 95 108 0 67 -5
72 -75 72 -39 0 -43 2 -49 30 -7 39 -55 62 -210 101 -59 16 -110 30 -112 31
-2 2 -9 21 -16 43 -9 27 -20 41 -38 45 -60 16 -98 17 -143 5z m121 -70 c11
-11 -8 -17 -67 -22 -51 -5 -61 -3 -61 10 0 8 6 18 13 21 14 6 107 -1 115 -9z
m127 -103 c83 -18 198 -57 203 -70 3 -9 -91 -12 -393 -12 -284 0 -396 3 -393
11 5 14 83 40 233 77 49 12 282 8 350 -6z m-635 -157 c19 -23 4 -45 -30 -45
-32 0 -47 18 -36 45 7 19 50 19 66 0z m815 -204 l0 -213 -35 -29 -34 -29 -298
0 c-400 0 -378 -17 -378 283 0 106 3 197 6 200 4 4 172 5 373 4 l366 -2 0
-214z m155 202 c12 -11 -20 -38 -49 -41 -27 -3 -31 0 -31 22 0 15 7 26 18 29
17 4 52 -1 62 -10z"/>
<path d="M363 794 c-35 -21 -43 -32 -43 -55 0 -36 12 -36 72 -4 57 30 62 31
99 4 48 -34 90 -35 146 -5 l50 27 49 -26 c56 -30 96 -29 143 4 37 27 45 26 98
-5 50 -29 73 -26 73 10 0 30 -53 66 -110 73 -30 4 -51 -1 -89 -21 l-50 -26
-43 25 c-54 31 -86 31 -147 1 l-48 -25 -39 24 c-52 32 -107 32 -161 -1z"/>
<path d="M519 328 c-67 -92 -72 -130 -25 -185 21 -24 31 -28 70 -25 75 4 99 3
137 -3 25 -5 44 -2 60 8 21 14 26 14 43 1 27 -20 65 -18 104 6 38 24 55 62 46
104 -10 48 -76 136 -101 136 -16 0 -43 -24 -43 -38 0 -5 -6 -15 -13 -21 -11
-8 -20 -3 -43 24 -35 43 -48 44 -81 5 -13 -16 -29 -30 -35 -30 -5 0 -21 14
-35 30 -13 17 -31 30 -39 30 -8 0 -28 -19 -45 -42z m91 -110 c0 -34 -3 -38
-24 -38 -56 0 -71 27 -41 74 14 21 19 22 40 12 20 -9 25 -18 25 -48z m133 -17
c-13 -21 -40 -26 -58 -11 -21 17 -19 42 6 69 l22 23 20 -32 c15 -24 18 -36 10
-49z m142 32 c8 -34 -14 -58 -47 -50 -13 4 -24 14 -25 24 -1 10 -4 29 -9 42
-5 17 -4 22 4 17 7 -4 20 -3 29 3 22 12 39 -1 48 -36z"/>
</g>
</svg>
